<svg width="20" height="20" viewBox="0 0 48 48" xmlns="http://www.w3.org/2000/svg">
  <path fill="#EA4335" d="M24 9.5c3.3 0 6.2 1.1 8.5 3.2l6.3-6.3C34.7 2.8 29.7 1 24 1 14.6 1 6.5 6.4 2.6 14.3l7.3 5.7C11.8 13.5 17.4 9.5 24 9.5z"/>
  <path fill="#4285F4" d="M46.5 24.5c0-1.6-.1-2.8-.4-4.1H24v7.8h12.8c-.3 2-.9 3.8-2.1 5.3l6.8 5.3c3.9-3.6 6-8.8 6-14.3z"/>
  <path fill="#FBBC05" d="M9.9 28c-.5-1.4-.8-2.8-.8-4s.3-2.6.8-4l-7.3-5.7C1 17 0 20.4 0 24s1 7 2.6 9.7L9.9 28z"/>
  <path fill="#34A853" d="M24 47c6.5 0 11.9-2.1 15.8-5.8L33 35.9c-2 1.4-4.7 2.3-9 2.3-6.6 0-12.2-4-14.1-9.5l-7.3 5.7C6.5 41.6 14.6 47 24 47z"/>
</svg>
